# xmcd
#
# Track frame offsets:
#	150
#	16012
#	29821
#	47130
#	62622
#	88150
#	100161
#	115789
#	132485
#	144392
#	159459
#	169112
#	179311
#	191531
#	207471
#	221207
#	231609
#
# Disc length: 3261 seconds
# Revision: 0
# Processed by: cddbd v1.5.2PL0 Copyright (c) Steve Scherf et al.
# Submitted via: dBpowerAMP V12.0
#
DISCID=fb0cbb11
DTITLE=Don Edwards - Just Me And My Guitar
DYEAR=2013
DGENRE=Cowboy
TTITLE0=When I Was A Cowboy
TTITLE1=Jack O' Diamonds
TTITLE2=West Of Yesterday
TTITLE3=Riders In The Sky
TTITLE4=How Great Thou Art
TTITLE5=Poor Lonesome Cowboy
TTITLE6=Cowboy's Lament
TTITLE7=Cool Water
TTITLE8=Weary Blues
TTITLE9=Cowtown Blues
TTITLE10=Waiting For A Train
TTITLE11=Blue Yodel No. 5
TTITLE12=Cattle Call
TTITLE13=Things About Comin' My Way
TTITLE14=Cyclone Blues
TTITLE15=Cowhand's Last Ride
TTITLE16=I Can't Feel at Home in This World Anymore
EXTD=
EXTT0=
EXTT1=
EXTT2=
EXTT3=
EXTT4=
EXTT5=
EXTT6=
EXTT7=
EXTT8=
EXTT9=
EXTT10=
EXTT11=
EXTT12=
EXTT13=
EXTT14=
EXTT15=
EXTT16=
PLAYORDER=
